<?xml version="1.0" encoding="UTF-8"?>
<!-- SPDX-License-Identifier: GPL-3.0-or-later -->
<!-- Seed Seeker mark, macOS master: the chest on Apple's icon grid (824pt
     squircle on a 1024pt canvas, soft drop shadow). Rasterised into
     AppIcon.icns by scripts/generate-icons.sh.
     See assets/icon/ATTRIBUTION.md. -->
<svg xmlns="http://www.w3.org/2000/svg" width="1024" height="1024" viewBox="0 0 1024 1024">
  <defs>
    <linearGradient id="paper" x1="0" y1="0" x2="0" y2="1">
      <stop offset="0" stop-color="#0F3272"/>
      <stop offset="1" stop-color="#071D48"/>
    </linearGradient>
    <clipPath id="plate">
      <rect x="100" y="100" width="824" height="824" rx="185"/>
    </clipPath>
    <filter id="shadow" x="-20%" y="-20%" width="140%" height="140%">
      <feGaussianBlur in="SourceAlpha" stdDeviation="14"/>
      <feOffset dy="12"/>
      <feComponentTransfer><feFuncA type="linear" slope="0.35"/></feComponentTransfer>
    </filter>
  </defs>
  <rect x="100" y="100" width="824" height="824" rx="185" filter="url(#shadow)"/>
  <rect x="100" y="100" width="824" height="824" rx="185" fill="url(#paper)"/>
  <g clip-path="url(#plate)" stroke="#FFFFFF" stroke-width="2" opacity="0.16" fill="none">
    <path d="M8 0V1024M32 0V1024M56 0V1024M80 0V1024M104 0V1024M128 0V1024M152 0V1024M176 0V1024M200 0V1024M224 0V1024M248 0V1024M272 0V1024M296 0V1024M320 0V1024M344 0V1024M368 0V1024M392 0V1024M416 0V1024M440 0V1024M464 0V1024M488 0V1024M512 0V1024M536 0V1024M560 0V1024M584 0V1024M608 0V1024M632 0V1024M656 0V1024M680 0V1024M704 0V1024M728 0V1024M752 0V1024M776 0V1024M800 0V1024M824 0V1024M848 0V1024M872 0V1024M896 0V1024M920 0V1024M944 0V1024M968 0V1024M992 0V1024M1016 0V1024"/>
    <path d="M0 8H1024M0 32H1024M0 56H1024M0 80H1024M0 104H1024M0 128H1024M0 152H1024M0 176H1024M0 200H1024M0 224H1024M0 248H1024M0 272H1024M0 296H1024M0 320H1024M0 344H1024M0 368H1024M0 392H1024M0 416H1024M0 440H1024M0 464H1024M0 488H1024M0 512H1024M0 536H1024M0 560H1024M0 584H1024M0 608H1024M0 632H1024M0 656H1024M0 680H1024M0 704H1024M0 728H1024M0 752H1024M0 776H1024M0 800H1024M0 824H1024M0 848H1024M0 872H1024M0 896H1024M0 920H1024M0 944H1024M0 968H1024M0 992H1024M0 1016H1024"/>
  </g>
  <g shape-rendering="crispEdges">
    <rect x="176" y="176" width="72" height="72" fill="#E8F0FF"/>
    <rect x="464" y="176" width="96" height="72" fill="#E8F0FF"/>
    <rect x="776" y="176" width="72" height="72" fill="#E8F0FF"/>
    <rect x="248" y="200" width="48" height="288" fill="#0A2149"/>
    <rect x="296" y="200" width="120" height="48" fill="#1E4E9E"/>
    <rect x="416" y="200" width="48" height="240" fill="#0A2149"/>
    <rect x="560" y="200" width="48" height="240" fill="#0A2149"/>
    <rect x="608" y="200" width="120" height="48" fill="#1E4E9E"/>
    <rect x="728" y="200" width="48" height="288" fill="#0A2149"/>
    <rect x="176" y="248" width="72" height="48" fill="#F6F9FF"/>
    <rect x="296" y="248" width="120" height="48" fill="#2E6AC8"/>
    <rect x="464" y="248" width="96" height="48" fill="#F6F9FF"/>
    <rect x="608" y="248" width="120" height="48" fill="#2E6AC8"/>
    <rect x="776" y="248" width="72" height="48" fill="#F6F9FF"/>
    <rect x="176" y="296" width="72" height="96" fill="#FFFFFF"/>
    <rect x="296" y="296" width="120" height="96" fill="#4A8AEA"/>
    <rect x="464" y="296" width="96" height="96" fill="#FFFFFF"/>
    <rect x="608" y="296" width="120" height="96" fill="#4A8AEA"/>
    <rect x="776" y="296" width="72" height="96" fill="#FFFFFF"/>
    <rect x="176" y="392" width="72" height="48" fill="#F6F9FF"/>
    <rect x="296" y="392" width="120" height="24" fill="#2E6AC8"/>
    <rect x="464" y="392" width="96" height="48" fill="#F6F9FF"/>
    <rect x="608" y="392" width="120" height="24" fill="#2E6AC8"/>
    <rect x="776" y="392" width="72" height="48" fill="#F6F9FF"/>
    <rect x="296" y="416" width="96" height="24" fill="#2E6AC8"/>
    <rect x="392" y="416" width="24" height="24" fill="#1E4E9E"/>
    <rect x="608" y="416" width="24" height="24" fill="#1E4E9E"/>
    <rect x="632" y="416" width="96" height="24" fill="#2E6AC8"/>
    <rect x="176" y="440" width="72" height="96" fill="#E8F0FF"/>
    <rect x="296" y="440" width="72" height="24" fill="#1E4E9E"/>
    <rect x="368" y="440" width="288" height="48" fill="#FFFFFF"/>
    <rect x="656" y="440" width="72" height="24" fill="#1E4E9E"/>
    <rect x="776" y="440" width="72" height="96" fill="#E8F0FF"/>
    <rect x="296" y="464" width="48" height="24" fill="#1E4E9E"/>
    <rect x="344" y="464" width="24" height="24" fill="#0A2149"/>
    <rect x="656" y="464" width="24" height="24" fill="#0A2149"/>
    <rect x="680" y="464" width="48" height="24" fill="#1E4E9E"/>
    <rect x="248" y="488" width="120" height="48" fill="#0A2149"/>
    <rect x="368" y="488" width="48" height="48" fill="#FFFFFF"/>
    <rect x="416" y="488" width="192" height="48" fill="#E8F0FF"/>
    <rect x="608" y="488" width="48" height="48" fill="#FFFFFF"/>
    <rect x="656" y="488" width="120" height="48" fill="#0A2149"/>
    <rect x="176" y="536" width="192" height="48" fill="#E8F0FF"/>
    <rect x="368" y="536" width="48" height="120" fill="#F6F9FF"/>
    <rect x="416" y="536" width="48" height="120" fill="#E8F0FF"/>
    <rect x="464" y="536" width="96" height="72" fill="#050F2E"/>
    <rect x="560" y="536" width="48" height="120" fill="#E8F0FF"/>
    <rect x="608" y="536" width="48" height="120" fill="#F6F9FF"/>
    <rect x="656" y="536" width="192" height="48" fill="#E8F0FF"/>
    <rect x="176" y="584" width="24" height="24" fill="#B7CDEF"/>
    <rect x="200" y="584" width="144" height="24" fill="#E8F0FF"/>
    <rect x="344" y="584" width="24" height="24" fill="#B7CDEF"/>
    <rect x="656" y="584" width="24" height="24" fill="#B7CDEF"/>
    <rect x="680" y="584" width="144" height="24" fill="#E8F0FF"/>
    <rect x="824" y="584" width="24" height="24" fill="#B7CDEF"/>
    <rect x="176" y="608" width="192" height="24" fill="#B7CDEF"/>
    <rect x="464" y="608" width="24" height="72" fill="#B7CDEF"/>
    <rect x="488" y="608" width="48" height="72" fill="#050F2E"/>
    <rect x="536" y="608" width="24" height="72" fill="#B7CDEF"/>
    <rect x="656" y="608" width="192" height="24" fill="#B7CDEF"/>
    <rect x="200" y="632" width="48" height="144" fill="#E8F0FF"/>
    <rect x="248" y="632" width="120" height="24" fill="#0A2149"/>
    <rect x="656" y="632" width="120" height="24" fill="#0A2149"/>
    <rect x="776" y="632" width="48" height="144" fill="#E8F0FF"/>
    <rect x="248" y="656" width="24" height="24" fill="#0A2149"/>
    <rect x="272" y="656" width="24" height="24" fill="#1E4E9E"/>
    <rect x="296" y="656" width="24" height="24" fill="#0A2149"/>
    <rect x="320" y="656" width="24" height="24" fill="#1E4E9E"/>
    <rect x="344" y="656" width="24" height="24" fill="#0A2149"/>
    <rect x="368" y="656" width="24" height="24" fill="#F6F9FF"/>
    <rect x="392" y="656" width="72" height="24" fill="#E8F0FF"/>
    <rect x="560" y="656" width="72" height="24" fill="#E8F0FF"/>
    <rect x="632" y="656" width="24" height="24" fill="#F6F9FF"/>
    <rect x="656" y="656" width="24" height="24" fill="#1E4E9E"/>
    <rect x="680" y="656" width="24" height="24" fill="#0A2149"/>
    <rect x="704" y="656" width="24" height="24" fill="#1E4E9E"/>
    <rect x="728" y="656" width="48" height="24" fill="#0A2149"/>
    <rect x="248" y="680" width="48" height="24" fill="#0A2149"/>
    <rect x="296" y="680" width="24" height="24" fill="#1E4E9E"/>
    <rect x="320" y="680" width="24" height="24" fill="#0A2149"/>
    <rect x="344" y="680" width="24" height="24" fill="#1E4E9E"/>
    <rect x="368" y="680" width="288" height="48" fill="#E8F0FF"/>
    <rect x="656" y="680" width="24" height="24" fill="#0A2149"/>
    <rect x="680" y="680" width="24" height="24" fill="#1E4E9E"/>
    <rect x="704" y="680" width="24" height="24" fill="#0A2149"/>
    <rect x="728" y="680" width="24" height="24" fill="#1E4E9E"/>
    <rect x="752" y="680" width="24" height="24" fill="#0A2149"/>
    <rect x="248" y="704" width="24" height="24" fill="#0A2149"/>
    <rect x="272" y="704" width="24" height="24" fill="#1E4E9E"/>
    <rect x="296" y="704" width="24" height="24" fill="#0A2149"/>
    <rect x="320" y="704" width="24" height="24" fill="#1E4E9E"/>
    <rect x="344" y="704" width="24" height="24" fill="#0A2149"/>
    <rect x="656" y="704" width="24" height="24" fill="#1E4E9E"/>
    <rect x="680" y="704" width="24" height="24" fill="#0A2149"/>
    <rect x="704" y="704" width="24" height="24" fill="#1E4E9E"/>
    <rect x="728" y="704" width="48" height="24" fill="#0A2149"/>
    <rect x="248" y="728" width="48" height="24" fill="#0A2149"/>
    <rect x="296" y="728" width="24" height="24" fill="#1E4E9E"/>
    <rect x="320" y="728" width="24" height="24" fill="#0A2149"/>
    <rect x="344" y="728" width="24" height="24" fill="#1E4E9E"/>
    <rect x="368" y="728" width="312" height="24" fill="#0A2149"/>
    <rect x="680" y="728" width="24" height="24" fill="#1E4E9E"/>
    <rect x="704" y="728" width="24" height="24" fill="#0A2149"/>
    <rect x="728" y="728" width="24" height="24" fill="#1E4E9E"/>
    <rect x="752" y="728" width="24" height="24" fill="#0A2149"/>
    <rect x="248" y="752" width="528" height="24" fill="#0A2149"/>
    <rect x="200" y="776" width="624" height="48" fill="#E8F0FF"/>
  </g>
</svg>
